<?xml version="1.0" encoding="UTF-8" standalone="no"?>
<!-- Created with Inkscape (http://www.inkscape.org/) -->

<svg
   width="520.40436"
   height="300"
   viewBox="0 0 137.69032 79.374999"
   version="1.1"
   id="svg1"
   xml:space="preserve"
   inkscape:version="1.4.4 (dcaf3e7d9e, 2026-05-05)"
   sodipodi:docname="bird-shadow-02.svg"
   xmlns:inkscape="http://www.inkscape.org/namespaces/inkscape"
   xmlns:sodipodi="http://sodipodi.sourceforge.net/DTD/sodipodi-0.dtd"
   xmlns="http://www.w3.org/2000/svg"
   xmlns:svg="http://www.w3.org/2000/svg"><sodipodi:namedview
     id="namedview1"
     pagecolor="#505050"
     bordercolor="#eeeeee"
     borderopacity="1"
     inkscape:showpageshadow="0"
     inkscape:pageopacity="0"
     inkscape:pagecheckerboard="0"
     inkscape:deskcolor="#505050"
     inkscape:document-units="px"
     inkscape:zoom="1.2935185"
     inkscape:cx="245.45454"
     inkscape:cy="168.91911"
     inkscape:window-width="1874"
     inkscape:window-height="1011"
     inkscape:window-x="46"
     inkscape:window-y="32"
     inkscape:window-maximized="1"
     inkscape:current-layer="layer1"
     showguides="true" /><defs
     id="defs1"><filter
       inkscape:collect="always"
       style="color-interpolation-filters:sRGB"
       id="filter179"
       x="-0.037644074"
       y="-0.066216126"
       width="1.0752881"
       height="1.1324323"><feGaussianBlur
         inkscape:collect="always"
         stdDeviation="2.189961"
         id="feGaussianBlur179" /></filter></defs><g
     inkscape:label="Layer 1"
     inkscape:groupmode="layer"
     id="layer1"
     transform="translate(537.42805,657.99827)"><path
       style="opacity:0.5;mix-blend-mode:normal;fill:#000000;stroke-width:3.6154;filter:url(#filter179)"
       d="m -465.74964,-656.68429 -8.38455,8.38458 1.75472,4.70689 h -18.05835 l -7.00911,-1.05467 h -2.5e-4 c -1.51647,-0.76063 -3.23088,-1.18857 -5.04914,-1.18857 -2.92206,0 -5.57688,1.10458 -7.57103,2.92062 l -22.74078,10.7181 -3.30594,1.55803 v 2.6e-4 c 1.74862,8.16163 8.97437,14.24449 17.67326,14.24449 3.62476,0 6.99375,-1.05656 9.81727,-2.87928 0,0 12.08895,-3.5483 13.85358,-3.51301 1.9411,0.0706 14.09832,4.23549 16.14526,4.09432 0.91567,0 2.63809,-0.40532 4.29833,-0.86553 -0.30219,1.31475 -0.46177,2.68502 -0.46177,4.09407 0,4.64253 1.73262,8.86553 4.58913,12.06026 l -7.70595,11.31604 -8.9631,6.10353 -7.28529,4.96109 h 1.19135 c 1.24123,-0.1066 2.4705,-0.54861 3.54985,-1.34644 0.0356,-0.0263 0.0707,-0.0526 0.10567,-0.0794 -0.22098,0.66088 -0.33855,1.34442 -0.35558,2.02761 1.02118,-0.18484 2.00396,-0.59799 2.86692,-1.23019 0,0.57107 0.067,1.13862 0.20297,1.68969 0.75647,-0.11003 1.49251,-0.34418 2.17618,-0.69454 -0.1513,1.14535 -0.0119,2.29383 0.38308,3.34707 1.75292,-0.46769 3.31019,-1.6161 4.26075,-3.2931 0.67224,-0.23486 1.30818,-0.57255 1.88287,-1.00372 0.0132,0.42538 0.065,0.84659 0.15431,1.25868 1.21809,-0.5403 2.28607,-1.43161 3.04041,-2.6137 h 0.53491 c 0.0716,0.49399 0.19619,0.97797 0.37046,1.44329 0.32483,-0.0867 0.64297,-0.19666 0.95178,-0.32912 -0.13792,0.86376 -0.10871,1.73225 0.0714,2.56327 1.00585,-0.44615 1.90897,-1.13189 2.61797,-2.02282 0,0.84692 0.15265,1.67443 0.44209,2.4465 0.2996,-0.18895 0.58514,-0.40085 0.85369,-0.63426 0.12982,0.47761 0.30946,0.93716 0.53439,1.37167 0.29037,-0.23567 0.56235,-0.49486 0.8123,-0.7755 0.18941,0.36813 0.41042,0.7169 0.65971,1.04282 0.4929,-0.56906 0.89459,-1.21908 1.18329,-1.92774 0.25377,0.49152 0.56441,0.94878 0.92329,1.36309 0.24928,-0.32592 0.47035,-0.67469 0.6597,-1.04281 0.24997,0.28062 0.5217,0.53982 0.81206,0.77549 0.22494,-0.43451 0.40487,-0.89406 0.53463,-1.37167 0.26855,0.2334 0.5541,0.4453 0.85369,0.63426 0.2895,-0.77207 0.44318,-1.59958 0.44186,-2.4465 0.70899,0.89094 1.61236,1.57641 2.61821,2.02257 0.18018,-0.83103 0.20901,-1.69952 0.0711,-2.56327 0.30881,0.13245 0.6272,0.24269 0.95203,0.32936 0.10725,-0.28646 0.19568,-0.58007 0.26455,-0.87863 h 1.04206 c 0.71212,0.90383 1.62316,1.5985 2.63892,2.04905 0.0893,-0.4121 0.14152,-0.83331 0.1546,-1.25869 0.57464,0.43117 1.21063,0.76886 1.88283,1.00372 0.95056,1.67701 2.50782,2.82542 4.26079,3.2931 0.39442,-1.05323 0.53433,-2.20171 0.38305,-3.34707 0.68366,0.35036 1.41949,0.58454 2.17592,0.69453 0.12124,-0.49138 0.18916,-0.99614 0.20125,-1.50456 0.63931,0.33994 1.32327,0.57503 2.02533,0.7021 -0.0161,-0.64163 -0.12071,-1.28361 -0.31647,-1.90682 h 0.12282 c 1.06569,0.77182 2.27397,1.20056 3.49362,1.30534 h 1.19135 l -1.91669,-1.30534 h -2.3e-4 l -14.09921,-9.6014 -7.1153,-10.44825 c 4e-5,-5e-5 -5e-5,-2.1e-4 0,-2.6e-4 2.91986,-3.2084 4.69575,-7.47836 4.69575,-12.17828 0,-1.26356 -0.12823,-2.49614 -0.37269,-3.68526 1.84974,0.50841 3.74423,0.97191 4.45317,0.9558 1.62344,-0.0706 15.38732,-4.61604 17.64602,-4.47487 2.18812,0.10581 9.82107,2.49038 9.82107,2.49038 l 2.4e-4,2.5e-4 c 3.04266,2.32838 6.85266,3.70922 10.99702,3.70922 8.69888,0 15.92463,-6.08284 17.67325,-14.24447 v -2.7e-4 l -25.39913,-11.97097 -2.4e-4,-2.6e-4 c -2.02021,-1.95945 -4.77877,-3.16246 -7.8285,-3.16246 -1.84164,0 -3.57682,0.43874 -5.10759,1.21783 l -7.34908,1.03624 h -16.94219 l 1.74744,-4.71419 z"
       id="rect18-0-0"
       transform="matrix(0.88305474,0,0,0.88305474,-56.811343,-73.468842)" /></g></svg>
