<?xml version="1.0" encoding="UTF-8" standalone="no"?>
<!-- Created with Inkscape (http://www.inkscape.org/) -->

<svg
   width="259.29303"
   height="200"
   viewBox="0 0 68.604613 52.916666"
   version="1.1"
   id="svg1"
   sodipodi:docname="dummy-bird-01.svg"
   inkscape:version="1.4.4 (dcaf3e7d9e, 2026-05-05)"
   xmlns:inkscape="http://www.inkscape.org/namespaces/inkscape"
   xmlns:sodipodi="http://sodipodi.sourceforge.net/DTD/sodipodi-0.dtd"
   xmlns="http://www.w3.org/2000/svg"
   xmlns:svg="http://www.w3.org/2000/svg">
  <sodipodi:namedview
     id="namedview1"
     pagecolor="#505050"
     bordercolor="#eeeeee"
     borderopacity="1"
     inkscape:showpageshadow="0"
     inkscape:pageopacity="0"
     inkscape:pagecheckerboard="0"
     inkscape:deskcolor="#505050"
     inkscape:document-units="px"
     inkscape:zoom="1.8293114"
     inkscape:cx="200.34861"
     inkscape:cy="157.16296"
     inkscape:window-width="1874"
     inkscape:window-height="1011"
     inkscape:window-x="46"
     inkscape:window-y="32"
     inkscape:window-maximized="1"
     inkscape:current-layer="layer1" />
  <defs
     id="defs1">
    <filter
       inkscape:collect="always"
       style="color-interpolation-filters:sRGB"
       id="filter10"
       x="-0.0039782778"
       y="-0.0057184697"
       width="1.0079566"
       height="1.0096278">
      <feGaussianBlur
         inkscape:collect="always"
         stdDeviation="0.22127865"
         id="feGaussianBlur10" />
    </filter>
  </defs>
  <g
     inkscape:label="Layer 1"
     inkscape:groupmode="layer"
     id="layer1"
     transform="translate(-0.86600338,-48.940537)">
    <path
       id="path4"
       style="opacity:0.6;mix-blend-mode:normal;fill:#1a1a1a;stroke:#000000;stroke-width:0.529167;stroke-linecap:round;stroke-opacity:0.283705;filter:url(#filter10)"
       d="m 100.55606,49.821365 c -0.13679,0.160765 -0.36557,0.354497 -0.30283,0.556039 -2.092608,2.560947 -8.321771,5.265422 -9.695531,8.958626 -0.121149,0.174233 -0.235577,0.351217 -0.343131,0.530717 l -0.02119,0.0155 c 0.0033,0.0019 0.005,0.0023 0.0083,0.0041 -0.920126,1.392289 -1.404615,2.932492 -1.414384,4.496366 2.05e-4,4.594964 4.05397,8.59582 9.819039,9.690882 -0.150275,1.165187 -0.502253,2.299438 -1.236617,3.376538 -4.495498,8.844766 -13.245038,14.274051 -21.038509,19.915063 -10.544017,6.684944 -23.481748,6.472124 -35.164779,9.793204 -7.530137,2.17674 -15.264102,3.65031 -22.710241,6.09368 -6.072794,2.65022 -11.7847994,7.08845 -14.7830774,13.07827 -1.0613372,1.69836 -4.00446618,4.83138 0.1214396,4.28501 13.5097288,1.08151 56.1260938,-3.66835 87.0975258,-1.23196 -0.01765,0.13825 -0.03183,0.28007 -0.04289,0.42478 -0.230132,6.113 -2.689446,11.78276 -5.375899,17.19998 -3.720713,9.74745 -9.253426,18.76038 -16.302881,26.46763 -4.155975,4.93926 -9.038252,9.19692 -13.717509,13.51598 12.193936,-5.15427 24.936511,-11.93537 31.424956,-24.05745 -1.836092,3.91015 -3.908224,12.7585 -5.617229,18.47432 -0.987483,7.38148 -1.694268,15.16242 0.334864,22.43843 -0.404492,-6.67798 2.729039,-20.41127 3.074747,-21.43435 2.412579,-5.36635 2.974553,-11.35214 6.091101,-16.42277 1.460012,-5.02173 2.258303,-0.89455 3.216342,2.07067 1.70411,5.23608 3.863343,11.74592 4.446757,16.50649 0.304247,2.0463 0.887149,4.02581 1.540991,5.98775 -0.207542,-2.46013 -0.219054,-4.93287 -0.0217,-7.33754 -0.09892,-7.36006 3.835005,-13.94197 4.490165,-21.14083 0.52652,1.2615 3.9863,7.31578 4.0504,7.91735 5.59002,8.83865 11.55024,17.76867 19.84427,24.30911 0.96793,-0.45116 -4.21901,-6.57339 -6.12676,-8.90592 -7.00503,-7.24306 -12.35641,-16.25552 -13.93869,-26.31622 -0.91882,-7.79057 -1.49778,-15.71396 -0.97203,-23.56032 0.34289,-1.70364 0.58565,-3.98326 1.30431,-5.74745 0.1066,-0.24035 3.7613,-0.49017 3.74344,-0.38034 2.61412,-0.2073 82.07282,1.63393 87.21019,1.22266 4.12591,0.54637 1.1828,-2.58666 0.12144,-4.28501 -2.99827,-5.98982 -8.71029,-10.42805 -14.78308,-13.07827 -7.44614,-2.44337 -15.1801,-3.91694 -22.71024,-6.09368 -11.68303,-3.32108 -24.62076,-3.10827 -35.16478,-9.793204 -7.79347,-5.64101 -16.54301,-11.070298 -21.03851,-19.915063 -0.73382,-1.0763 -1.08564,-2.20968 -1.2361,-3.373954 5.77161,-1.091225 9.83229,-5.094493 9.83247,-9.693466 -1e-5,-2.831256 -1.55376,-5.529229 -4.27416,-7.421769 -2.83513,-2.837819 -6.29149,-4.948701 -9.73997,-7.139616 z M 99.965394,190.5549 c 0.387746,4.59615 1.459656,9.14786 3.132626,13.12736 0.0652,-4.63272 -1.70307,-8.83779 -3.132626,-13.12736 z"
       sodipodi:nodetypes="ccccccccccccccccccccccccccccccccccccccccccccccccc"
       transform="matrix(0.34028112,0,0,0.34028112,0.57131878,32.286996)" />
  </g>
</svg>
